<?xml version="1.0" encoding="UTF-8" standalone="no"?>
<!DOCTYPE svg PUBLIC "-//W3C//DTD SVG 1.1//EN"
 "http://www.w3.org/Graphics/SVG/1.1/DTD/svg11.dtd">
<!-- Generated by graphviz version 2.38.0 (20140413.2041)
 -->
<!-- Title: models_diagram Pages: 1 -->
<svg width="200pt" height="397pt"
 viewBox="0.00 0.00 199.81 397.00" xmlns="http://www.w3.org/2000/svg" xmlns:xlink="http://www.w3.org/1999/xlink">
<g id="graph0" class="graph" transform="scale(1 1) rotate(0) translate(4 393)">
<title>models_diagram</title>
<polygon fill="white" stroke="none" points="-4,4 -4,-393 195.807,-393 195.807,4 -4,4"/>
<!-- Game -->
<g id="node1" class="node"><title>Game</title>
<path fill="none" stroke="black" d="M12,-260.5C12,-260.5 121.011,-260.5 121.011,-260.5 127.011,-260.5 133.011,-266.5 133.011,-272.5 133.011,-272.5 133.011,-376.5 133.011,-376.5 133.011,-382.5 127.011,-388.5 121.011,-388.5 121.011,-388.5 12,-388.5 12,-388.5 6,-388.5 0,-382.5 0,-376.5 0,-376.5 0,-272.5 0,-272.5 0,-266.5 6,-260.5 12,-260.5"/>
<text text-anchor="middle" x="66.5054" y="-373.3" font-family="Times,serif" font-size="14.00">Game</text>
<polyline fill="none" stroke="black" points="0,-366.5 133.011,-366.5 "/>
<text text-anchor="start" x="8" y="-351.3" font-family="Times,serif" font-size="14.00">id :integer</text>
<text text-anchor="start" x="8" y="-337.3" font-family="Times,serif" font-size="14.00">player1 :integer</text>
<text text-anchor="start" x="8" y="-323.3" font-family="Times,serif" font-size="14.00">player2 :integer</text>
<text text-anchor="start" x="8" y="-309.3" font-family="Times,serif" font-size="14.00">first_move :integer</text>
<text text-anchor="start" x="8" y="-295.3" font-family="Times,serif" font-size="14.00">winner :integer</text>
<text text-anchor="start" x="8" y="-281.3" font-family="Times,serif" font-size="14.00">created_at :datetime</text>
<text text-anchor="start" x="8" y="-267.3" font-family="Times,serif" font-size="14.00">updated_at :datetime</text>
</g>
<!-- Move -->
<g id="node2" class="node"><title>Move</title>
<path fill="none" stroke="black" d="M12,-0.5C12,-0.5 121.011,-0.5 121.011,-0.5 127.011,-0.5 133.011,-6.5 133.011,-12.5 133.011,-12.5 133.011,-74.5 133.011,-74.5 133.011,-80.5 127.011,-86.5 121.011,-86.5 121.011,-86.5 12,-86.5 12,-86.5 6,-86.5 0,-80.5 0,-74.5 0,-74.5 0,-12.5 0,-12.5 0,-6.5 6,-0.5 12,-0.5"/>
<text text-anchor="middle" x="66.5054" y="-71.3" font-family="Times,serif" font-size="14.00">Move</text>
<polyline fill="none" stroke="black" points="0,-64.5 133.011,-64.5 "/>
<text text-anchor="start" x="8" y="-49.3" font-family="Times,serif" font-size="14.00">id :integer</text>
<text text-anchor="start" x="8" y="-35.3" font-family="Times,serif" font-size="14.00">cell_chosen :integer</text>
<text text-anchor="start" x="8" y="-21.3" font-family="Times,serif" font-size="14.00">created_at :datetime</text>
<text text-anchor="start" x="8" y="-7.3" font-family="Times,serif" font-size="14.00">updated_at :datetime</text>
</g>
<!-- Game&#45;&gt;Move -->
<g id="edge2" class="edge"><title>Game&#45;&gt;Move</title>
<path fill="none" stroke="#4f3798" d="M40.1771,-250.397C37.8495,-241.598 35.8639,-232.661 34.5054,-224 27.5497,-179.653 25.8718,-167.051 34.5054,-123 36.2515,-114.091 39.0142,-104.917 42.2022,-96.1237"/>
<polygon fill="#4f3798" stroke="#4f3798" points="40.2397,-250.621 38.6017,-261.463 41.5874,-255.436 42.9351,-260.251 42.9351,-260.251 42.9351,-260.251 41.5874,-255.436 47.2686,-259.038 40.2397,-250.621 40.2397,-250.621"/>
<polygon fill="#4f3798" stroke="#4f3798" points="42.2127,-96.0961 50.0008,-88.3762 44.0065,-91.4289 45.8004,-86.7618 45.8004,-86.7618 45.8004,-86.7618 44.0065,-91.4289 41.5999,-85.1473 42.2127,-96.0961 42.2127,-96.0961"/>
</g>
<!-- User -->
<g id="node3" class="node"><title>User</title>
<path fill="none" stroke="black" d="M55.2036,-123.5C55.2036,-123.5 179.807,-123.5 179.807,-123.5 185.807,-123.5 191.807,-129.5 191.807,-135.5 191.807,-135.5 191.807,-211.5 191.807,-211.5 191.807,-217.5 185.807,-223.5 179.807,-223.5 179.807,-223.5 55.2036,-223.5 55.2036,-223.5 49.2036,-223.5 43.2036,-217.5 43.2036,-211.5 43.2036,-211.5 43.2036,-135.5 43.2036,-135.5 43.2036,-129.5 49.2036,-123.5 55.2036,-123.5"/>
<text text-anchor="middle" x="117.505" y="-208.3" font-family="Times,serif" font-size="14.00">User</text>
<polyline fill="none" stroke="black" points="43.2036,-201.5 191.807,-201.5 "/>
<text text-anchor="start" x="51.2036" y="-186.3" font-family="Times,serif" font-size="14.00">id :integer</text>
<text text-anchor="start" x="51.2036" y="-172.3" font-family="Times,serif" font-size="14.00">email :string</text>
<text text-anchor="start" x="51.2036" y="-158.3" font-family="Times,serif" font-size="14.00">password_digest :string</text>
<text text-anchor="start" x="51.2036" y="-144.3" font-family="Times,serif" font-size="14.00">created_at :datetime</text>
<text text-anchor="start" x="51.2036" y="-130.3" font-family="Times,serif" font-size="14.00">updated_at :datetime</text>
</g>
<!-- Game&#45;&gt;User -->
<g id="edge1" class="edge"><title>Game&#45;&gt;User</title>
<path fill="none" stroke="#11aa34" d="M90.7943,-252.538C92.9796,-246.154 95.1768,-239.734 97.3215,-233.468"/>
<ellipse fill="none" stroke="#11aa34" cx="89.4293" cy="-256.526" rx="4.00001" ry="4.00001"/>
<polygon fill="#11aa34" stroke="#11aa34" points="97.4009,-233.237 104.897,-225.233 99.0201,-228.506 100.639,-223.775 100.639,-223.775 100.639,-223.775 99.0201,-228.506 96.3818,-222.318 97.4009,-233.237 97.4009,-233.237"/>
</g>
<!-- User&#45;&gt;Move -->
<g id="edge3" class="edge"><title>User&#45;&gt;Move</title>
<path fill="none" stroke="#4aba34" d="M94.9581,-115.911C92.3225,-109.296 89.6441,-102.574 87.0378,-96.0324"/>
<ellipse fill="none" stroke="#4aba34" cx="96.4527" cy="-119.662" rx="4.00001" ry="4.00001"/>
<polygon fill="#4aba34" stroke="#4aba34" points="86.9856,-95.9012 87.4645,-84.9458 85.1349,-91.2563 83.2842,-86.6114 83.2842,-86.6114 83.2842,-86.6114 85.1349,-91.2563 79.1038,-88.2771 86.9856,-95.9012 86.9856,-95.9012"/>
</g>
</g>
</svg>
